<svg xmlns="http://www.w3.org/2000/svg" viewBox="0 0 300 160"><style>.a{fill:#fff;}.b{fill:#fec319;}</style><path d="M0 0L300 0 300 124.8C274 125.2 248 124.9 222 125 148 124.9 74 125.2 0 124.9L0 0M1.6 1.7C1.6 42.2 1.6 82.7 1.6 123.3 100.7 123.3 199.8 123.3 298.9 123.3 298.8 82.7 298.7 42.2 298.9 1.7 199.8 1.6 100.7 1.7 1.6 1.7Z" class="a"/><path d="M131.6 25.9C143.3 22.6 156.5 24.4 166.5 31.4 179.7 40.3 185.5 58 180.9 73.1 177.8 84.3 169 93.7 158.1 97.9 141.6 104.4 120.8 99.3 110.6 84.5 104.5 75.8 102.2 64.4 104.7 54.1 107.5 40.6 118.4 29.5 131.6 25.9M136.5 43.8C127.4 47.1 122.7 58 125.1 67.1 126.4 73.8 131.4 79.7 138.1 81.6 144.7 83.6 152.6 81.4 157 76 163.7 68.2 163.3 55.3 156 48 151.1 42.9 143.1 41.3 136.5 43.8Z" class="a"/><path d="M19.3 99.3C19.4 74.7 19.4 50.2 19.3 25.7 26.5 25.7 33.6 25.7 40.7 25.7 46.6 35.2 52.5 44.7 58.2 54.3 64 44.7 69.9 35.2 75.7 25.7 82.8 25.7 89.9 25.7 97 25.7 96.9 50.2 96.9 74.7 97 99.3 90.3 99.3 83.5 99.3 76.8 99.3 77 85.2 76.5 71.1 77.1 57 70.5 66.5 64.3 76.4 58 86.2 51.8 76.5 45.5 66.9 39.2 57.2 39.2 71.2 39.2 85.2 39.2 99.3 32.6 99.3 26 99.3 19.3 99.3Z" class="a"/><path d="M189.3 25.7C202.2 25.7 215.1 25.7 228 25.7 234.4 26 241.3 27.3 246.1 31.8 252.7 37.7 253.2 48.9 247.5 55.6 245.5 58 242.7 59.5 240 60.9 245.9 62.4 251.6 66.2 253.6 72.1 255.6 78.7 254.8 86.6 249.7 91.6 244.1 97.5 235.7 98.9 228 99.3 215.1 99.3 202.2 99.3 189.3 99.3 189.4 74.7 189.4 50.2 189.3 25.7M209 42.2C209.1 46.4 209.1 50.6 209 54.9 214.4 54.9 219.7 55.1 225 54.7 228.1 54.5 231.3 52.3 231.4 49 231.8 45.7 229 42.9 225.9 42.5 220.3 41.8 214.6 42.3 209 42.2M209 69.3C209.1 73.8 209.1 78.2 209 82.7 214.4 82.8 219.7 82.8 225 82.7 227.8 82.6 231 82.3 232.9 80 235.4 77.5 234.8 72.9 231.8 71 229.5 69.6 226.7 69.2 224 69.2 219 69.2 214 69.2 209 69.3Z" class="a"/><path d="M260.6 47.1C267.4 47.1 274.2 47.1 280.9 47.1 280.9 64.5 280.8 81.9 281 99.3 274.2 99.3 267.4 99.3 260.6 99.3 260.7 81.9 260.6 64.5 260.6 47.1Z" class="a"/><path d="M260.6 25.7C267.4 25.7 274.2 25.7 281 25.7 280.8 31 280.9 36.3 281 41.6 274.2 41.7 267.4 41.7 260.6 41.7 260.6 36.3 260.6 31 260.6 25.7Z" class="b"/><path d="M126.4 141C127.3 139.7 128.1 138.4 129 137.1 129.9 137.5 130.7 137.9 131.6 138.4 130.6 139.3 129.7 140.1 128.8 141 128.2 141 127 141 126.4 141Z" class="b"/><path d="M30.8 142.5C31.8 142.5 32.8 142.5 33.8 142.5 33.6 147.2 33.7 151.8 33.7 156.5 36.6 156.5 39.6 156.5 42.5 156.5 42.5 157.1 42.6 158.3 42.6 158.8 38.7 159 34.8 159 30.8 159 30.8 153.5 30.9 148 30.8 142.5Z" class="b"/><path d="M63.5 142.8C69.3 140.1 76.6 145.6 75.3 151.9 75 160 62.4 161.9 59.1 155 56.4 150.7 58.8 144.4 63.5 142.8M64.4 145.4C60.2 147.2 60.1 153.9 64 156 67.3 158.1 71.9 155.7 72.3 151.9 73.4 147.6 68.4 143.1 64.4 145.4Z" class="b"/><path d="M96.5 143.4C99.9 141.2 104.1 142.2 107.4 144 107.1 144.6 106.3 145.9 106 146.5 103.8 145.7 101.5 144.1 99.2 145.2 95.1 146.6 94.2 152.8 97.5 155.5 100.1 157.9 106.4 157.1 105.5 152.5 103.9 152.5 102.4 152.5 100.9 152.5 100.9 151.8 100.9 150.5 100.9 149.8 103.3 149.8 105.7 149.8 108.1 149.8 108.1 152.2 108.1 154.6 108.1 157 104.9 159.3 100.5 159.6 96.8 158.5 91.1 155.7 91 146.5 96.5 143.4Z" class="b"/><path d="M150 142.9C153 141.3 156.4 142.8 159.2 144 158.7 144.8 158.1 145.7 157.5 146.5 156 145.8 154.5 145.1 153 144.5 151.9 145 150.8 145.6 149.8 146.1 150.6 149.6 154.9 149.1 157.4 150.7 160.6 152.3 160 157.4 156.9 158.6 153.4 159.6 149.6 159 146.5 157 146.9 156.5 147.7 155.3 148.2 154.7 150.5 156.5 156.5 158.6 156.6 153.9 154.4 151.9 151.1 152.1 148.7 150.4 146.2 148.4 147.1 144 150 142.9Z" class="b"/><path d="M175.5 142.5C180.1 142.5 184.6 142.5 189.2 142.5 189.2 143.2 189.2 144.6 189.2 145.3 187.4 145.3 185.6 145.3 183.8 145.3 183.8 149.8 183.8 154.4 183.9 158.9 183.1 158.9 181.6 159 180.8 159 180.8 154.4 180.7 149.9 180.9 145.3 179.1 145.3 177.4 145.3 175.6 145.2 175.6 144.6 175.6 143.2 175.5 142.5Z" class="b"/><path d="M233.4 142.6C236.7 141.4 240.1 142.7 242.7 144.8 242.2 145.3 241.2 146.3 240.7 146.8 239.2 145.9 237.6 145.2 236 144.5 230.8 145.1 228.4 152.1 232.6 155.5 235 157.9 238.3 156.3 240.8 155 241.3 155.3 242.4 155.9 242.9 156.2 239.2 160.6 230.6 160.3 228.2 154.7 225.9 150.2 228.4 143.9 233.4 142.6Z" class="b"/><path d="M126.1 142.6C126.8 142.6 128.3 142.6 129.1 142.6 129.1 148 129.1 153.5 129.1 158.9 128.4 158.9 126.9 158.9 126.1 158.9 126.2 153.5 126.3 148.1 126.1 142.6Z" class="b"/><path d="M206.5 142.5C207.3 142.5 208.8 142.5 209.5 142.5 209.4 148 209.5 153.5 209.5 159 208.7 159 207.3 159 206.6 159 206.6 153.5 206.6 148 206.5 142.5Z" class="b"/><path d="M258.4 159C260.9 153.4 263.3 147.8 265.8 142.2 266.5 142.3 267.9 142.4 268.6 142.5 270.9 148.1 273.3 153.6 275.8 159.1 274.9 159 273.3 158.9 272.5 158.8 272 157.6 271.5 156.4 271 155.2 268.4 155.2 265.8 155.2 263.2 155.1 262.6 156.4 262.1 157.7 261.5 158.9 260.7 158.9 259.2 159 258.4 159M267 145.9C266 148.1 265.1 150.3 264.1 152.5 266.1 152.6 268.1 152.6 270 152.5 269 150.3 268.1 148.1 267 145.9Z" class="b"/></svg>
